<svg xmlns="http://www.w3.org/2000/svg" viewBox="0 0 96 96" role="img" aria-label="TikTok">
  <circle cx="48" cy="48" r="46" fill="#0A0A0A"/>
  <path fill="#25F4EE" d="M58.2 18.5c1.5 8 6 13.2 13.7 13.7v11.3c-4.6.4-8.8-1-13.3-3.8v19.9c0 13.9-15.1 22.2-26.7 15.1-11.9-7.4-10.3-25.3 2.7-30.5 2.6-1 5.2-1.2 8.1-.7v11.8c-1.3-.4-2.5-.5-3.8-.2-6.1 1.2-7.6 9.3-2.3 12.5 5 3.1 10.7-.6 10.7-6.6V18.5h10.9Z"/>
  <path fill="#FE2C55" d="M62.1 18.5c1.5 8 6 13.2 13.7 13.7v11.3c-4.6.4-8.8-1-13.3-3.8v19.9c0 13.9-15.1 22.2-26.7 15.1-5.2-3.2-7.9-8.6-7.6-14.1 1.1 2.8 3.1 5.3 6 7.1 5 3.1 10.7-.6 10.7-6.6V18.5h17.2Z" opacity=".88"/>
  <path fill="#fff" d="M58.2 18.5c1.5 8 6 13.2 13.7 13.7v8.8c-4.6.4-8.8-1-13.3-3.8v19.9c0 13.9-15.1 22.2-26.7 15.1-8.8-5.5-9.6-17.6-2.8-24.3 3.6-3.6 8.1-4.9 13.6-4v9c-1.3-.4-2.5-.5-3.8-.2-6.1 1.2-7.6 9.3-2.3 12.5 5 3.1 10.7-.6 10.7-6.6V18.5h10.9Z"/>
</svg>
