<svg xmlns="http://www.w3.org/2000/svg" viewBox="0 0 96 96" role="img" aria-label="WhatsApp">
  <circle cx="48" cy="48" r="46" fill="#25D366"/>
  <path fill="#fff" d="M25.4 72.8 29 59.7A25 25 0 1 1 38.7 69l-13.3 3.8Zm14-8.3.8.5a20.5 20.5 0 1 0-6.7-6.5l.5.8-2.1 7.5 7.5-2.3Z"/>
  <path fill="#fff" d="M60.5 52.6c-1-.5-5.6-2.8-6.5-3.1-.9-.3-1.5-.5-2.1.5-.6.9-2.4 3.1-3 3.7-.5.6-1.1.7-2 .2-1-.5-4.1-1.5-7.8-4.8-2.9-2.6-4.8-5.7-5.4-6.7-.6-1-.1-1.5.4-2 .5-.5 1-1.1 1.5-1.7.5-.6.6-1 .9-1.6.3-.6.1-1.2-.1-1.7-.2-.5-2.1-5.1-2.9-7-.8-1.9-1.6-1.6-2.1-1.6h-1.8c-.6 0-1.6.2-2.5 1.2-.8.9-3.2 3.2-3.2 7.7s3.3 8.9 3.8 9.5c.5.6 6.5 9.9 15.7 13.9 2.2.9 3.9 1.5 5.2 1.9 2.2.7 4.2.6 5.8.4 1.8-.3 5.6-2.3 6.4-4.5.8-2.2.8-4.1.6-4.5-.3-.4-.9-.7-1.9-1.2Z"/>
</svg>
